# xmcd
#
# Track frame offsets:
#	150
#	14524
#	29257
#	66440
#	96668
#	105418
#	124628
#	136166
#	170148
#	192821
#	230420
#	248016
#	290434
#
# Disc length: 4333 seconds
#
# Revision: 0
# Processed by: cddbd v1.5.2PL0 Copyright (c) Steve Scherf et al.
# Submitted via: EasyCDDAExtractor 16.0.6.1
#
DISCID=b610eb0d
DTITLE=Ψαραντώνης - Αντάρτες των βουνών-Ψαραντώνης
DYEAR=2008
DGENRE=Κρητική
TTITLE0=Άνευ ερμηνευτού - Ο χορός της βροχής [οργανικό]
TTITLE1=Ψαραντώνης - Είναι φορές που με μεθεί [μουσ. Ψαραντώνης]
TTITLE2=Ξυλούρης Γιώργης-Ξυλούρη Νίκη - Παράτα μπλιό την ξενητειά [μουσ. Ψαραν
TTITLE2=τώνης]
TTITLE3=Ψαραντώνης - Να μην αφήνεις γιασεμί [μουσ. Ψαραντώνης]
TTITLE4=Ψαραντώνης - Αντί να κλαίω, τραγουδώ [μουσ. Ψαραντώνης]
TTITLE5=Ψαραντώνης - Άσπρη, κάτασπρη [μουσ. Ψαραντώνης]
TTITLE6=Ξυλούρη Νίκη - Μαζί χαρά και λύπη [μουσ. Ψαραντώνης]
TTITLE7=Άνευ ερμηνευτού - Κοντυλιές [οργ., μουσ. Ψαραντώνης]
TTITLE8=Ξυλούρη Νίκη - Κοιμάται ο ήλιος στα βουνά [μουσ. Ψαραντώνης]
TTITLE9=Ψαραντώνης - Καντάδα [μουσ. Ψαραντώνης]
TTITLE10=Άνευ ερμηνευτού - Ρεθυμνιώτικα συρτά [οργ., μουσ. Ψαραντώνης]
TTITLE11=Ξυλούρη Νίκη - Νεράϊδας γιέ [μουσ. Ψαραντώνης]
TTITLE12=Ψαραντώνης - Χανιώτικο συρτό [μουσ. Ψαραντώνης]
EXTD=
EXTT0=
EXTT1=
EXTT2=
EXTT3=
EXTT4=
EXTT5=
EXTT6=
EXTT7=
EXTT8=
EXTT9=
EXTT10=
EXTT11=
EXTT12=
PLAYORDER=
